<?xml version="1.0" encoding="utf-8"?>
<svg viewBox="200.0003 200 1999.9997 1679.9317" xmlns="http://www.w3.org/2000/svg">
  <g transform="matrix(0.17784000933170319, 0, 0, -0.199537992477417, -1249.3958740234375, 5613.46533203125)" fill="#000000" stroke="none" style="">
    <path d="M11227 27100 c-40 -25 -54 -43 -87 -112 -22 -45 -40 -87 -40 -94 0&#10;-11 -124 -349 -490 -1329 -78 -209 -213 -571 -300 -805 -87 -234 -237 -639&#10;-335 -900 -97 -261 -241 -648 -320 -860 -79 -212 -214 -574 -300 -805 -172&#10;-463 -393 -1054 -635 -1705 -87 -234 -251 -674 -364 -978 -133 -359 -206 -567&#10;-206 -591 0 -84 40 -149 114 -186 60 -30 116 -32 171 -6 22 10 135 99 250 198&#10;116 98 455 388 755 643 300 255 588 500 640 545 52 45 264 225 470 400 206&#10;175 418 355 470 400 123 105 373 318 675 575 132 112 283 240 335 285 52 45&#10;325 277 605 515 281 239 596 507 700 596 105 89 309 264 455 388 l265 226 66&#10;-72 c36 -40 758 -838 1604 -1773 846 -935 1577 -1742 1624 -1794 47 -52 111&#10;-122 141 -156 325 -364 338 -375 438 -375 68 0 109 18 153 67 40 44 25 -10&#10;229 833 45 184 114 472 155 640 41 168 105 436 144 595 473 1954 623 2575 682&#10;2825 38 162 75 309 80 325 42 116 32 182 -36 250 -79 80 -56 81 -697 -30 -310&#10;-53 -745 -128 -968 -166 -443 -76 -680 -117 -895 -154 -1091 -188 -1898 -325&#10;-1900 -323 -2 2 87 80 198 174 111 94 330 281 487 414 157 134 368 314 470&#10;400 102 87 329 280 505 430 176 150 466 397 645 549 394 334 513 449 530 512&#10;26 94 -15 191 -99 238 -44 24 -47 24 -435 32 -215 4 -521 10 -681 13 -159 4&#10;-515 11 -790 16 -275 5 -612 12 -750 15 -137 3 -482 10 -765 15 -283 5 -627&#10;12 -765 15 -245 6 -891 18 -1575 31 -340 6 -345 7 -370 29 -43 39 -86 55 -148&#10;55 -47 0 -67 -5 -105 -30z m1193 -475 c1017 -19 1322 -25 1540 -30 135 -3 477&#10;-10 760 -15 283 -5 634 -12 780 -15 850 -18 1192 -25 1328 -25 85 0 152 -4&#10;150 -9 -1 -4 -52 -50 -113 -102 -60 -51 -168 -143 -240 -204 -71 -61 -375&#10;-320 -675 -575 -300 -255 -588 -500 -640 -545 -120 -103 -553 -471 -905 -769&#10;-148 -126 -280 -238 -291 -248 l-21 -19 -414 458 c-228 252 -441 487 -474 523&#10;-33 36 -118 131 -190 210 -71 79 -179 199 -240 265 -116 128 -207 228 -615&#10;680 -139 154 -273 303 -299 330 -25 28 -57 63 -71 79 l-25 28 185 -6 c102 -3&#10;313 -8 470 -11z m-310 -975 c376 -415 762 -843 859 -950 97 -107 203 -224 236&#10;-260 33 -36 119 -130 190 -210 72 -79 159 -176 195 -215 36 -39 93 -103 127&#10;-142 l63 -71 -128 -108 c-70 -60 -185 -158 -257 -219 -71 -61 -359 -306 -640&#10;-545 -280 -239 -582 -495 -670 -571 -88 -75 -317 -270 -510 -434 -192 -163&#10;-465 -395 -605 -515 -140 -119 -365 -311 -500 -425 -135 -115 -288 -245 -340&#10;-290 -52 -45 -264 -225 -470 -400 -206 -175 -418 -355 -470 -400 -311 -266&#10;-373 -317 -366 -299 4 10 52 138 106 284 54 146 198 533 320 860 122 327 273&#10;732 335 900 62 168 197 530 300 805 103 275 238 637 300 805 62 168 213 573&#10;335 900 122 327 273 732 335 900 304 818 516 1383 521 1392 8 13 -53 79 734&#10;-792z m6721 -1526 c-44 -181 -114 -470 -155 -641 -42 -172 -110 -451 -150&#10;-620 -96 -394 -592 -2448 -653 -2698 -25 -104 -49 -194 -53 -198 -4 -4 -87 81&#10;-186 190 -98 109 -206 227 -239 263 -33 36 -117 128 -186 205 -177 197 -707&#10;783 -746 825 -17 19 -482 532 -1032 1140 l-1000 1105 92 17 c51 9 371 65 712&#10;123 1085 186 1595 274 1770 304 193 33 845 146 1475 254 234 40 426 70 428 66&#10;2 -4 -33 -155 -77 -335z"/>
  </g>
</svg>